<svg width="176" height="40" viewBox="0 0 176 40" fill="none" xmlns="http://www.w3.org/2000/svg">
<rect width="176" height="40" rx="8" fill="#9A8C98"/>
<g clip-path="url(#clip0_16_28)">
<mask id="mask0_16_28" style="mask-type:luminance" maskUnits="userSpaceOnUse" x="11" y="12" width="21" height="16">
<path d="M31.9559 12.0791H11.9995V27.9932H31.9559V12.0791Z" fill="white"/>
</mask>
<g mask="url(#mask0_16_28)">
<path d="M19.978 27.9927C17.0731 27.9927 14.7103 26.7015 13.3255 24.357C12.0994 22.302 11.9995 20.0761 11.9995 17.589C11.9995 16.1144 12.4459 14.8306 13.2897 13.876C14.0652 12.9992 15.1641 12.4313 16.3844 12.2766C17.8328 12.0942 19.6336 12.0791 21.5058 12.0791C24.5526 12.0791 25.4133 12.1162 26.612 12.2353C28.2066 12.3926 29.5484 12.9841 30.4916 13.946C31.4496 14.9231 31.9559 16.2278 31.9559 17.7206V18.0206C31.9559 20.5678 30.2424 22.6996 27.8544 23.2791C27.6762 23.6971 27.4554 24.1131 27.1941 24.5226L27.1872 24.5331C26.346 25.8253 24.3686 27.9932 20.581 27.9932H19.9774L19.978 27.9927Z" fill="white"/>
<path d="M26.487 13.4827C25.3549 13.3703 24.5627 13.3327 21.5064 13.3327C19.5442 13.3327 17.8839 13.3515 16.5448 13.5203C14.7714 13.7455 13.2619 15.0951 13.2619 17.5891C13.2619 20.083 13.3939 22.0142 14.4128 23.7202C15.5637 25.6702 17.488 26.7387 19.9785 26.7387H20.5821C23.6384 26.7387 25.2988 25.1263 26.1289 23.8514C26.4875 23.2886 26.7514 22.7264 26.9213 22.1636C29.091 21.9761 30.6946 20.1948 30.6946 18.0201V17.7202C30.6946 15.3768 29.1478 13.7455 26.4875 13.4827H26.487Z" fill="white"/>
<path d="M13.2612 17.5891C13.2612 15.0951 14.7707 13.7455 16.5441 13.5203C17.8837 13.3515 19.5441 13.3327 21.5057 13.3327C24.562 13.3327 25.3543 13.3703 26.4862 13.4827C29.1466 13.745 30.6934 15.3762 30.6934 17.7202V18.0201C30.6934 20.1954 29.0898 21.9766 26.92 22.1636C26.7502 22.7264 26.4862 23.2886 26.1276 23.8514C25.2975 25.1263 23.6372 26.7387 20.5809 26.7387H19.9773C17.4868 26.7387 15.5625 25.6702 14.4116 23.7202C13.3926 22.0142 13.2607 20.1201 13.2607 17.5891" fill="#202020"/>
<path d="M14.6761 17.6074C14.6761 20.0261 14.827 21.5822 15.6193 23.0259C16.5247 24.6948 18.1661 25.3322 20.0342 25.3322H20.6188C23.0714 25.3322 24.2602 24.1508 24.9206 23.1199C25.2413 22.5948 25.5241 22.0138 25.675 21.2822L25.7881 20.8135H26.4674C27.9768 20.8135 29.2787 19.595 29.2787 18.0385V17.7574C29.2787 16.0138 28.1846 15.0947 26.2787 14.87C25.2035 14.7765 24.562 14.7388 21.5052 14.7388C19.449 14.7388 17.9774 14.7576 16.8643 14.9264C15.2986 15.1516 14.6756 16.0326 14.6756 17.6074" fill="white"/>
<path d="M25.789 18.9015C25.789 19.1267 25.9588 19.2954 26.2607 19.2954C27.2228 19.2954 27.7512 18.7515 27.7512 17.8517C27.7512 16.952 27.2228 16.3892 26.2607 16.3892C25.9588 16.3892 25.789 16.558 25.789 16.7832V18.902V18.9015Z" fill="#202020"/>
<path d="M16.5255 18.7893C16.5255 19.8954 17.148 20.8516 17.9403 21.602C18.4687 22.1082 19.2989 22.6334 19.8646 22.9709C20.0344 23.0645 20.2042 23.1209 20.393 23.1209C20.6196 23.1209 20.8078 23.0645 20.9592 22.9709C21.5255 22.6334 22.3551 22.1082 22.8646 21.602C23.6758 20.8521 24.2983 19.8959 24.2983 18.7893C24.2983 17.5891 23.393 16.5205 22.0912 16.5205C21.3178 16.5205 20.7894 16.9145 20.393 17.4579C20.0344 16.914 19.4876 16.5205 18.7137 16.5205C17.393 16.5205 16.5249 17.5891 16.5249 18.7893" fill="#FF5A16"/>
</g>
</g>
<path d="M47.105 20.2466H44.3804L44.3657 18.8257H46.7021C47.1025 18.8257 47.437 18.7695 47.7056 18.6572C47.9741 18.5449 48.1768 18.3813 48.3135 18.1665C48.4551 17.9517 48.5259 17.6904 48.5259 17.3828C48.5259 17.041 48.46 16.7627 48.3281 16.5479C48.2012 16.333 48.001 16.1768 47.7275 16.0791C47.4541 15.9766 47.1074 15.9253 46.6875 15.9253H45.0322V25H43.0181V14.3359H46.6875C47.293 14.3359 47.8325 14.3945 48.3062 14.5117C48.7847 14.624 49.1899 14.7998 49.522 15.0391C49.854 15.2783 50.1055 15.5786 50.2764 15.9399C50.4521 16.3013 50.54 16.731 50.54 17.229C50.54 17.6685 50.4375 18.0737 50.2324 18.4448C50.0322 18.811 49.7222 19.1089 49.3022 19.3384C48.8872 19.5679 48.3599 19.6997 47.7202 19.7339L47.105 20.2466ZM47.0171 25H43.7871L44.6294 23.418H47.0171C47.4175 23.418 47.7471 23.3521 48.0059 23.2202C48.2695 23.0884 48.4648 22.9077 48.5918 22.6782C48.7236 22.4438 48.7896 22.1753 48.7896 21.8726C48.7896 21.5405 48.731 21.2524 48.6138 21.0083C48.5015 20.7642 48.3208 20.5762 48.0718 20.4443C47.8276 20.3125 47.5054 20.2466 47.105 20.2466H45.0103L45.0249 18.8257H47.6909L48.1523 19.375C48.7676 19.3799 49.2681 19.502 49.6538 19.7412C50.0444 19.9805 50.3325 20.2881 50.5181 20.6641C50.7036 21.04 50.7964 21.4453 50.7964 21.8799C50.7964 22.5635 50.6475 23.1372 50.3496 23.6011C50.0566 24.0649 49.627 24.4141 49.0605 24.6484C48.499 24.8828 47.8179 25 47.0171 25ZM57.1099 23.1177V17.0752H59.0581V25H57.2271L57.1099 23.1177ZM57.3589 21.4771L57.9595 21.4624C57.9595 21.9946 57.9009 22.4854 57.7837 22.9346C57.6665 23.3838 57.4834 23.7744 57.2344 24.1064C56.9902 24.4336 56.6802 24.6899 56.3042 24.8755C55.9282 25.0562 55.4839 25.1465 54.9712 25.1465C54.5806 25.1465 54.2241 25.0928 53.9019 24.9854C53.5796 24.873 53.3013 24.6997 53.0669 24.4653C52.8374 24.2261 52.6592 23.9209 52.5322 23.5498C52.4053 23.1738 52.3418 22.7222 52.3418 22.1948V17.0752H54.2754V22.2095C54.2754 22.4731 54.3047 22.6929 54.3633 22.8687C54.4268 23.0444 54.5122 23.1885 54.6196 23.3008C54.7319 23.4082 54.8613 23.4863 55.0078 23.5352C55.1592 23.5791 55.3203 23.6011 55.4912 23.6011C55.96 23.6011 56.3286 23.5083 56.5972 23.3228C56.8706 23.1323 57.0659 22.8784 57.1831 22.561C57.3003 22.2388 57.3589 21.8774 57.3589 21.4771ZM63.0938 24.1211L65.2178 17.0752H67.2905L64.1118 26.2012C64.0386 26.3965 63.9434 26.6089 63.8262 26.8384C63.7139 27.0679 63.5625 27.2852 63.3721 27.4902C63.1816 27.7002 62.9424 27.8711 62.6543 28.0029C62.3711 28.1348 62.0269 28.2007 61.6216 28.2007C61.4458 28.2007 61.2896 28.1885 61.1528 28.1641C61.0161 28.1396 60.8721 28.1079 60.7207 28.0688V26.6187C60.7695 26.6235 60.8257 26.626 60.8892 26.626C60.9575 26.6309 61.0161 26.6333 61.0649 26.6333C61.3481 26.6333 61.5825 26.5991 61.7681 26.5308C61.9536 26.4673 62.1025 26.3623 62.2148 26.2158C62.332 26.0742 62.4297 25.8887 62.5078 25.6592L63.0938 24.1211ZM62.0464 17.0752L63.8408 22.9126L64.1558 24.9561L62.8228 25.1978L59.959 17.0752H62.0464ZM73.8896 18.7012V25H71.9561V17.0752H73.7798L73.8896 18.7012ZM73.604 20.752H73.0107C73.0107 20.2002 73.0767 19.6924 73.2085 19.2285C73.3452 18.7646 73.5454 18.3618 73.8091 18.02C74.0728 17.6733 74.3975 17.4048 74.7832 17.2144C75.1738 17.0239 75.6255 16.9287 76.1382 16.9287C76.4946 16.9287 76.8218 16.9824 77.1196 17.0898C77.4175 17.1924 77.6738 17.356 77.8887 17.5806C78.1084 17.8003 78.2769 18.0884 78.394 18.4448C78.5112 18.7964 78.5698 19.2188 78.5698 19.7119V25H76.6362V19.9097C76.6362 19.5386 76.5825 19.248 76.4751 19.0381C76.3726 18.8281 76.2236 18.6816 76.0283 18.5986C75.833 18.5107 75.5986 18.4668 75.3252 18.4668C75.0225 18.4668 74.7612 18.5278 74.5415 18.6499C74.3267 18.7671 74.1484 18.9307 74.0068 19.1406C73.8701 19.3506 73.7676 19.5923 73.6992 19.8657C73.6357 20.1392 73.604 20.4346 73.604 20.752ZM78.4233 20.3931L77.625 20.5396C77.6299 20.0415 77.6982 19.5752 77.8301 19.1406C77.9619 18.7012 78.1548 18.3179 78.4087 17.9907C78.6675 17.6587 78.9873 17.3999 79.3682 17.2144C79.7539 17.0239 80.1982 16.9287 80.7012 16.9287C81.0918 16.9287 81.4434 16.9849 81.7559 17.0972C82.0732 17.2046 82.3442 17.3779 82.5688 17.6172C82.7935 17.8516 82.9644 18.1567 83.0815 18.5327C83.2036 18.9087 83.2646 19.3677 83.2646 19.9097V25H81.3164V19.9023C81.3164 19.5166 81.2627 19.2212 81.1553 19.0161C81.0527 18.811 80.9038 18.6694 80.7085 18.5913C80.5132 18.5083 80.2837 18.4668 80.02 18.4668C79.7515 18.4668 79.5171 18.5181 79.3169 18.6206C79.1216 18.7183 78.9556 18.855 78.8188 19.0308C78.687 19.2065 78.5869 19.4116 78.5186 19.646C78.4551 19.8755 78.4233 20.1245 78.4233 20.3931ZM88.5601 25.1465C87.9595 25.1465 87.4199 25.0488 86.9414 24.8535C86.4629 24.6582 86.0552 24.3872 85.7183 24.0405C85.3862 23.689 85.1299 23.2812 84.9492 22.8174C84.7734 22.3486 84.6855 21.8457 84.6855 21.3086V21.0156C84.6855 20.4053 84.7734 19.8511 84.9492 19.353C85.125 18.8501 85.374 18.418 85.6963 18.0566C86.0186 17.6953 86.4043 17.417 86.8535 17.2217C87.3027 17.0264 87.7983 16.9287 88.3403 16.9287C88.9019 16.9287 89.3975 17.0239 89.8271 17.2144C90.2568 17.3999 90.6157 17.6636 90.9038 18.0054C91.1919 18.3472 91.4092 18.7573 91.5557 19.2358C91.7021 19.7095 91.7754 20.2344 91.7754 20.8105V21.6235H85.5645V20.2905H89.8711V20.144C89.8613 19.8364 89.8027 19.5557 89.6953 19.3018C89.5879 19.043 89.4219 18.8379 89.1973 18.6865C88.9727 18.5303 88.6821 18.4521 88.3257 18.4521C88.0376 18.4521 87.7861 18.5156 87.5713 18.6426C87.3613 18.7646 87.1855 18.9404 87.0439 19.1699C86.9072 19.3945 86.8047 19.6631 86.7363 19.9756C86.668 20.2881 86.6338 20.6348 86.6338 21.0156V21.3086C86.6338 21.6406 86.6777 21.9482 86.7656 22.2314C86.8584 22.5146 86.9927 22.7612 87.1685 22.9712C87.3491 23.1763 87.564 23.3374 87.813 23.4546C88.0669 23.5669 88.355 23.623 88.6772 23.623C89.0825 23.623 89.4487 23.5449 89.7759 23.3887C90.1079 23.2275 90.396 22.9907 90.6401 22.6782L91.6143 23.689C91.4482 23.9331 91.2236 24.1675 90.9404 24.3921C90.6621 24.6167 90.3252 24.7998 89.9297 24.9414C89.5342 25.0781 89.0776 25.1465 88.5601 25.1465ZM101.172 23.3154V19.6606C101.172 19.3921 101.126 19.1602 101.033 18.9648C100.94 18.7695 100.799 18.6182 100.608 18.5107C100.418 18.4033 100.176 18.3496 99.8833 18.3496C99.6245 18.3496 99.3975 18.3936 99.2021 18.4814C99.0117 18.5693 98.8652 18.6938 98.7627 18.855C98.6602 19.0112 98.6089 19.1919 98.6089 19.397H96.668C96.668 19.0698 96.7461 18.7598 96.9023 18.4668C97.0586 18.1689 97.2808 17.9053 97.5688 17.6758C97.8618 17.4414 98.2109 17.2583 98.6162 17.1265C99.0264 16.9946 99.4854 16.9287 99.9932 16.9287C100.594 16.9287 101.128 17.0312 101.597 17.2363C102.071 17.4365 102.442 17.7393 102.71 18.1445C102.984 18.5498 103.121 19.0601 103.121 19.6753V23.1323C103.121 23.5278 103.145 23.8672 103.194 24.1504C103.248 24.4287 103.326 24.6704 103.428 24.8755V25H101.458C101.365 24.7998 101.294 24.5459 101.246 24.2383C101.197 23.9258 101.172 23.6182 101.172 23.3154ZM101.443 20.1733L101.458 21.3232H100.235C99.9321 21.3232 99.666 21.355 99.4365 21.4185C99.207 21.4771 99.019 21.5649 98.8726 21.6821C98.7261 21.7944 98.6162 21.9312 98.543 22.0923C98.4697 22.2485 98.4331 22.4268 98.4331 22.627C98.4331 22.8223 98.4771 22.998 98.5649 23.1543C98.6577 23.3105 98.7896 23.4351 98.9604 23.5278C99.1362 23.6157 99.3413 23.6597 99.5757 23.6597C99.9175 23.6597 100.215 23.5913 100.469 23.4546C100.723 23.313 100.921 23.1421 101.062 22.9419C101.204 22.7417 101.28 22.5513 101.29 22.3706L101.846 23.2056C101.778 23.4058 101.675 23.6182 101.539 23.8428C101.402 24.0674 101.226 24.2773 101.011 24.4727C100.796 24.668 100.538 24.8291 100.235 24.9561C99.9321 25.083 99.5806 25.1465 99.1802 25.1465C98.6675 25.1465 98.2085 25.0439 97.8032 24.8389C97.3979 24.6338 97.0781 24.353 96.8438 23.9966C96.6094 23.6401 96.4922 23.2349 96.4922 22.7808C96.4922 22.3608 96.5703 21.9897 96.7266 21.6675C96.8828 21.3452 97.1147 21.0742 97.4224 20.8545C97.73 20.6299 98.1108 20.4614 98.5649 20.3491C99.0239 20.2319 99.5488 20.1733 100.14 20.1733H101.443ZM108.746 14.3359H112.62C113.431 14.3359 114.126 14.458 114.708 14.7021C115.289 14.9463 115.735 15.3076 116.048 15.7861C116.36 16.2646 116.517 16.853 116.517 17.5513C116.517 18.103 116.419 18.5815 116.224 18.9868C116.028 19.3921 115.752 19.7314 115.396 20.0049C115.044 20.2783 114.629 20.4932 114.151 20.6494L113.521 20.9717H110.101L110.086 19.3823H112.642C113.057 19.3823 113.401 19.3091 113.675 19.1626C113.948 19.0161 114.153 18.8135 114.29 18.5547C114.432 18.2959 114.502 18.0005 114.502 17.6685C114.502 17.312 114.434 17.0044 114.297 16.7456C114.161 16.4819 113.953 16.2793 113.675 16.1377C113.396 15.9961 113.045 15.9253 112.62 15.9253H110.76V25H108.746V14.3359ZM114.766 25L112.298 20.2246L114.429 20.2173L116.927 24.8975V25H114.766ZM121.695 25.1465C121.094 25.1465 120.555 25.0488 120.076 24.8535C119.598 24.6582 119.19 24.3872 118.853 24.0405C118.521 23.689 118.265 23.2812 118.084 22.8174C117.908 22.3486 117.82 21.8457 117.82 21.3086V21.0156C117.82 20.4053 117.908 19.8511 118.084 19.353C118.26 18.8501 118.509 18.418 118.831 18.0566C119.153 17.6953 119.539 17.417 119.988 17.2217C120.438 17.0264 120.933 16.9287 121.475 16.9287C122.037 16.9287 122.532 17.0239 122.962 17.2144C123.392 17.3999 123.75 17.6636 124.039 18.0054C124.327 18.3472 124.544 18.7573 124.69 19.2358C124.837 19.7095 124.91 20.2344 124.91 20.8105V21.6235H118.699V20.2905H123.006V20.144C122.996 19.8364 122.938 19.5557 122.83 19.3018C122.723 19.043 122.557 18.8379 122.332 18.6865C122.107 18.5303 121.817 18.4521 121.46 18.4521C121.172 18.4521 120.921 18.5156 120.706 18.6426C120.496 18.7646 120.32 18.9404 120.179 19.1699C120.042 19.3945 119.939 19.6631 119.871 19.9756C119.803 20.2881 119.769 20.6348 119.769 21.0156V21.3086C119.769 21.6406 119.812 21.9482 119.9 22.2314C119.993 22.5146 120.127 22.7612 120.303 22.9712C120.484 23.1763 120.699 23.3374 120.948 23.4546C121.202 23.5669 121.49 23.623 121.812 23.623C122.217 23.623 122.583 23.5449 122.911 23.3887C123.243 23.2275 123.531 22.9907 123.775 22.6782L124.749 23.689C124.583 23.9331 124.358 24.1675 124.075 24.3921C123.797 24.6167 123.46 24.7998 123.064 24.9414C122.669 25.0781 122.212 25.1465 121.695 25.1465ZM130.96 23.3154V13.75H132.908V25H131.15L130.96 23.3154ZM125.87 21.1328V20.979C125.87 20.3735 125.938 19.8242 126.075 19.3311C126.216 18.833 126.421 18.4058 126.69 18.0493C126.958 17.6929 127.283 17.417 127.664 17.2217C128.05 17.0264 128.487 16.9287 128.975 16.9287C129.449 16.9287 129.861 17.0239 130.213 17.2144C130.569 17.4048 130.872 17.6758 131.121 18.0273C131.375 18.3789 131.578 18.7964 131.729 19.2798C131.88 19.7583 131.99 20.2856 132.059 20.8618V21.2793C131.99 21.8408 131.88 22.356 131.729 22.8247C131.578 23.2935 131.375 23.7036 131.121 24.0552C130.872 24.4019 130.569 24.6704 130.213 24.8608C129.856 25.0513 129.439 25.1465 128.96 25.1465C128.477 25.1465 128.042 25.0464 127.657 24.8462C127.276 24.646 126.951 24.3652 126.683 24.0039C126.419 23.6426 126.216 23.2178 126.075 22.7295C125.938 22.2412 125.87 21.709 125.87 21.1328ZM127.811 20.979V21.1328C127.811 21.4746 127.84 21.7944 127.898 22.0923C127.957 22.3901 128.052 22.6538 128.184 22.8833C128.316 23.1079 128.484 23.2837 128.689 23.4106C128.899 23.5376 129.153 23.6011 129.451 23.6011C129.832 23.6011 130.145 23.5181 130.389 23.3521C130.638 23.1812 130.831 22.9492 130.967 22.6562C131.104 22.3584 131.192 22.0239 131.231 21.6528V20.5029C131.211 20.21 131.16 19.939 131.077 19.6899C130.999 19.4409 130.887 19.2261 130.74 19.0454C130.599 18.8647 130.423 18.7231 130.213 18.6206C130.003 18.5181 129.754 18.4668 129.466 18.4668C129.168 18.4668 128.914 18.5327 128.704 18.6646C128.494 18.7915 128.323 18.9697 128.191 19.1992C128.06 19.4287 127.962 19.6948 127.898 19.9976C127.84 20.3003 127.811 20.6274 127.811 20.979ZM138.892 20.2466H136.167L136.153 18.8257H138.489C138.89 18.8257 139.224 18.7695 139.493 18.6572C139.761 18.5449 139.964 18.3813 140.101 18.1665C140.242 17.9517 140.313 17.6904 140.313 17.3828C140.313 17.041 140.247 16.7627 140.115 16.5479C139.988 16.333 139.788 16.1768 139.515 16.0791C139.241 15.9766 138.895 15.9253 138.475 15.9253H136.819V25H134.805V14.3359H138.475C139.08 14.3359 139.62 14.3945 140.093 14.5117C140.572 14.624 140.977 14.7998 141.309 15.0391C141.641 15.2783 141.893 15.5786 142.063 15.9399C142.239 16.3013 142.327 16.731 142.327 17.229C142.327 17.6685 142.225 18.0737 142.02 18.4448C141.819 18.811 141.509 19.1089 141.089 19.3384C140.674 19.5679 140.147 19.6997 139.507 19.7339L138.892 20.2466ZM138.804 25H135.574L136.417 23.418H138.804C139.205 23.418 139.534 23.3521 139.793 23.2202C140.057 23.0884 140.252 22.9077 140.379 22.6782C140.511 22.4438 140.577 22.1753 140.577 21.8726C140.577 21.5405 140.518 21.2524 140.401 21.0083C140.289 20.7642 140.108 20.5762 139.859 20.4443C139.615 20.3125 139.292 20.2466 138.892 20.2466H136.797L136.812 18.8257H139.478L139.939 19.375C140.555 19.3799 141.055 19.502 141.441 19.7412C141.832 19.9805 142.12 20.2881 142.305 20.6641C142.491 21.04 142.583 21.4453 142.583 21.8799C142.583 22.5635 142.435 23.1372 142.137 23.6011C141.844 24.0649 141.414 24.4141 140.848 24.6484C140.286 24.8828 139.605 25 138.804 25ZM148.897 23.1177V17.0752H150.845V25H149.014L148.897 23.1177ZM149.146 21.4771L149.747 21.4624C149.747 21.9946 149.688 22.4854 149.571 22.9346C149.454 23.3838 149.271 23.7744 149.021 24.1064C148.777 24.4336 148.467 24.6899 148.091 24.8755C147.715 25.0562 147.271 25.1465 146.758 25.1465C146.368 25.1465 146.011 25.0928 145.689 24.9854C145.367 24.873 145.088 24.6997 144.854 24.4653C144.625 24.2261 144.446 23.9209 144.319 23.5498C144.192 23.1738 144.129 22.7222 144.129 22.1948V17.0752H146.062V22.2095C146.062 22.4731 146.092 22.6929 146.15 22.8687C146.214 23.0444 146.299 23.1885 146.407 23.3008C146.519 23.4082 146.648 23.4863 146.795 23.5352C146.946 23.5791 147.107 23.6011 147.278 23.6011C147.747 23.6011 148.116 23.5083 148.384 23.3228C148.658 23.1323 148.853 22.8784 148.97 22.561C149.087 22.2388 149.146 21.8774 149.146 21.4771ZM154.61 13.75V25H152.669V13.75H154.61ZM158.506 13.75V25H156.565V13.75H158.506Z" fill="white"/>
<defs>
<clipPath id="clip0_16_28">
<rect width="20" height="16" fill="white" transform="translate(12 12)"/>
</clipPath>
</defs>
</svg>
